<svg aria-hidden="true" style="position: absolute; width: 0; height: 0; overflow: hidden;" version="1.1" xmlns="http://www.w3.org/2000/svg" xmlns:xlink="http://www.w3.org/1999/xlink">
<defs>
<symbol id="icon-icon-chemical" viewBox="0 0 32 32">
<path fill="#2b7fff" style="fill: var(--color1, #2b7fff)" d="M8.733 11.713h-8.86c-0.273 0-0.493 0.207-0.493 0.473v2.833c0 0.26 0.22 0.473 0.493 0.473h0.493v10.86c0 0.26 0.22 0.473 0.493 0.473h6.893c0.267 0 0.487-0.213 0.487-0.473v-10.86h0.493c0.273 0 0.493-0.213 0.493-0.473v-2.833c0-0.267-0.22-0.473-0.493-0.473zM3.32 20.687v-0.947h2.953v-0.94h-2.953v-0.947h3.94v6.14h-3.94v-2.36h0.987v-0.947h-0.987zM7.26 16.907h-4.433c-0.273 0-0.493 0.213-0.493 0.473v7.087c0 0.26 0.22 0.473 0.493 0.473h4.433v0.94h-5.907v-10.387h5.907v1.413zM8.24 14.547h-7.873v-1.893h7.873v1.893z"></path>
<path fill="#2b7fff" style="fill: var(--color1, #2b7fff)" d="M15.26 11.8v-3.453c0-0.267-0.22-0.487-0.493-0.487h-0.493v-2.433h0.987v-0.967h-5.42v0.967h3.447v2.433h-0.493c-0.267 0-0.487 0.22-0.487 0.487v3.453c-1.127 0.227-1.973 1.207-1.973 2.38v12.16c0 0.267 0.22 0.487 0.493 0.487h5.907c0.273 0 0.493-0.22 0.493-0.487v-12.16c0-1.173-0.847-2.153-1.967-2.38zM13.287 8.833h0.987v2.92h-0.987v-2.92zM12.793 12.727h1.973c0.813 0 1.473 0.653 1.473 1.453v0.487h-4.92v-0.487c0-0.8 0.66-1.453 1.473-1.453zM16.24 23.907h-4.92v-0.973h1.967v-0.967h-1.967v-6.327h4.92v8.267zM11.32 25.853v-0.973h4.92v0.973h-4.92z"></path>
<path fill="#2b7fff" style="fill: var(--color1, #2b7fff)" d="M27.84 11.107h-8.307c-0.253 0-0.46 0.213-0.46 0.48v14.767c0 0.26 0.207 0.473 0.46 0.473h8.307c0.26 0 0.467-0.213 0.467-0.473v-14.767c0-0.267-0.207-0.48-0.467-0.48zM27.38 25.873h-7.38v-13.813h7.38v13.813z"></path>
<path fill="#2b7fff" style="fill: var(--color1, #2b7fff)" d="M5.533 20.78h1.233v0.607h-1.233v-0.607z"></path>
<path fill="#2b7fff" style="fill: var(--color1, #2b7fff)" d="M14.153 21.987h1.227v1.213h-1.227v-1.213z"></path>
<path fill="#2b7fff" style="fill: var(--color1, #2b7fff)" d="M13.84 20.78c1.193 0 2.16-0.947 2.16-2.113s-0.967-2.12-2.16-2.12c-1.187 0-2.153 0.953-2.153 2.12s0.967 2.113 2.153 2.113zM13.84 17.607c0.6 0 1.080 0.473 1.080 1.060 0 0.58-0.48 1.053-1.080 1.053-0.593 0-1.073-0.473-1.073-1.053 0-0.587 0.48-1.060 1.073-1.060z"></path>
<path fill="#2b7fff" style="fill: var(--color1, #2b7fff)" d="M22.533 15.947h2.307c0.893 0 1.62-0.68 1.62-1.513s-0.727-1.513-1.62-1.513h-2.307c-0.887 0-1.613 0.68-1.613 1.513s0.727 1.513 1.613 1.513zM25.533 14.433c0 0.353-0.307 0.647-0.693 0.647h-0.687v-1.293h0.687c0.387 0 0.693 0.287 0.693 0.647zM22.533 13.787h0.693v1.293h-0.693c-0.38 0-0.693-0.293-0.693-0.647 0-0.36 0.313-0.647 0.693-0.647z"></path>
<path fill="#2b7fff" style="fill: var(--color1, #2b7fff)" d="M22.533 20.78h2.307c0.893 0 1.62-0.813 1.62-1.813s-0.727-1.813-1.62-1.813h-2.307c-0.887 0-1.613 0.813-1.613 1.813s0.727 1.813 1.613 1.813zM25.533 18.967c0 0.427-0.307 0.78-0.693 0.78h-0.687v-1.56h0.687c0.387 0 0.693 0.353 0.693 0.78zM22.533 18.187h0.693v1.56h-0.693c-0.38 0-0.693-0.353-0.693-0.78s0.313-0.78 0.693-0.78z"></path>
<path fill="#2b7fff" style="fill: var(--color1, #2b7fff)" d="M22.533 25.013h2.307c0.893 0 1.62-0.813 1.62-1.813s-0.727-1.813-1.62-1.813h-2.307c-0.887 0-1.613 0.813-1.613 1.813s0.727 1.813 1.613 1.813zM25.533 23.2c0 0.427-0.307 0.773-0.693 0.773h-0.687v-1.553h0.687c0.387 0 0.693 0.353 0.693 0.78zM22.533 22.42h0.693v1.553h-0.693c-0.38 0-0.693-0.347-0.693-0.773s0.313-0.78 0.693-0.78z"></path>
</symbol>
<symbol id="icon-icon-crown" viewBox="0 0 32 32">
<path fill="#2b7fff" style="fill: var(--color1, #2b7fff)" d="M29.687 10.32c-0.253-0.227-0.56-0.373-0.887-0.42-0.327-0.053-0.653 0-0.953 0.147l-6.313 3.080c-0.027 0.020-0.060 0.027-0.087 0.033-0.033 0-0.067 0-0.093-0.013-0.033-0.007-0.060-0.027-0.087-0.047-0.020-0.027-0.040-0.053-0.060-0.080l-3.687-7.287c-0.147-0.307-0.367-0.553-0.64-0.733-0.267-0.173-0.573-0.267-0.88-0.267-0.313 0-0.62 0.093-0.893 0.267-0.267 0.18-0.487 0.427-0.633 0.733l-3.687 7.287c-0.020 0.027-0.040 0.053-0.060 0.080-0.027 0.020-0.053 0.040-0.087 0.047-0.027 0.013-0.060 0.013-0.093 0.013-0.027-0.007-0.060-0.013-0.087-0.033l-6.313-3.080c-0.3-0.147-0.627-0.2-0.953-0.153s-0.633 0.193-0.88 0.42c-0.253 0.233-0.447 0.533-0.547 0.873-0.107 0.347-0.12 0.713-0.047 1.060l3.187 14.893c0.053 0.253 0.153 0.487 0.293 0.693 0.14 0.213 0.32 0.387 0.52 0.513 0.267 0.18 0.573 0.28 0.887 0.28 0.16-0.007 0.32-0.027 0.48-0.073 5.827-1.773 11.98-1.773 17.807-0.013 0.233 0.073 0.467 0.093 0.707 0.060 0.233-0.027 0.46-0.113 0.66-0.247 0.207-0.127 0.387-0.307 0.527-0.513s0.24-0.447 0.3-0.7l3.173-14.893c0.080-0.347 0.067-0.713-0.033-1.053-0.107-0.34-0.293-0.64-0.54-0.873zM28.807 11.86l-3.187 14.893c-0.013 0.073-0.053 0.133-0.113 0.18-0.060 0.033-0.133 0.040-0.2 0.027-6.093-1.853-12.527-1.853-18.62 0-0.033 0.013-0.067 0.013-0.107 0.007-0.033 0-0.067-0.013-0.093-0.033s-0.053-0.047-0.073-0.080c-0.020-0.027-0.033-0.060-0.040-0.1l-3.187-14.893c-0.007-0.040-0.007-0.080 0-0.12s0.027-0.080 0.053-0.113c0.020-0.033 0.053-0.060 0.087-0.080 0.033-0.013 0.067-0.027 0.107-0.027l0.1 0.027 6.327 3.093c0.4 0.2 0.847 0.22 1.267 0.067 0.413-0.147 0.76-0.467 0.967-0.893l3.693-7.287c0.020-0.040 0.047-0.080 0.087-0.107 0.033-0.020 0.080-0.033 0.127-0.033 0.040 0 0.087 0.013 0.12 0.033 0.040 0.027 0.067 0.067 0.087 0.107l3.687 7.287c0.213 0.427 0.56 0.747 0.973 0.893 0.413 0.153 0.867 0.133 1.267-0.067l6.327-3.093c0.040-0.020 0.087-0.027 0.133-0.020s0.093 0.027 0.127 0.060c0.040 0.033 0.067 0.073 0.080 0.127 0.020 0.047 0.020 0.1 0.007 0.147zM20.747 22.313c-0.020 0.2-0.107 0.393-0.247 0.527-0.14 0.14-0.32 0.213-0.5 0.213h-0.080c-2.607-0.287-5.24-0.287-7.847 0-0.2 0.027-0.393-0.040-0.553-0.173-0.153-0.14-0.253-0.333-0.273-0.553s0.040-0.433 0.167-0.607c0.127-0.167 0.313-0.273 0.507-0.3 2.713-0.32 5.44-0.32 8.153 0 0.193 0.027 0.373 0.133 0.5 0.3 0.127 0.16 0.187 0.38 0.173 0.593z"></path>
</symbol>
<symbol id="icon-icon-sciense" viewBox="0 0 32 32">
<path fill="#2b7fff" style="fill: var(--color1, #2b7fff)" d="M16.060 1.393c-1.053 0-2.033 0.48-2.867 1.267-0.84 0.78-1.553 1.873-2.147 3.193-0.127 0.273-0.247 0.567-0.36 0.86-0.307-0.047-0.62-0.087-0.927-0.12-0.36-0.033-0.713-0.060-1.053-0.067-1.027-0.027-1.967 0.080-2.787 0.327-1.1 0.333-2 0.947-2.527 1.853-0.527 0.913-0.6 2-0.34 3.113s0.847 2.28 1.693 3.46c0.173 0.247 0.367 0.493 0.567 0.74-0.2 0.24-0.387 0.487-0.567 0.74-0.847 1.18-1.433 2.34-1.693 3.46-0.26 1.113-0.187 2.2 0.34 3.113 0.527 0.907 1.427 1.52 2.527 1.853 1.093 0.327 2.4 0.407 3.84 0.26 0.3-0.033 0.613-0.073 0.927-0.12 0.107 0.293 0.227 0.58 0.36 0.86 0.593 1.32 1.307 2.413 2.147 3.2 0.833 0.78 1.813 1.26 2.867 1.26 1.047 0 2.027-0.48 2.867-1.26 0.833-0.787 1.547-1.88 2.147-3.2 0.127-0.28 0.247-0.567 0.36-0.86 0.313 0.047 0.62 0.087 0.92 0.12 1.447 0.147 2.747 0.067 3.84-0.26 1.1-0.333 2.007-0.947 2.527-1.853 0.527-0.913 0.6-2 0.34-3.113s-0.847-2.28-1.687-3.46c-0.187-0.253-0.373-0.5-0.567-0.74 0.193-0.24 0.38-0.487 0.567-0.74 0.84-1.18 1.433-2.347 1.693-3.46s0.18-2.2-0.347-3.113c-0.52-0.907-1.427-1.52-2.52-1.853-0.827-0.247-1.76-0.353-2.787-0.327-0.347 0.007-0.693 0.033-1.060 0.067-0.3 0.027-0.607 0.073-0.92 0.12-0.113-0.293-0.233-0.58-0.36-0.86-0.6-1.32-1.313-2.413-2.147-3.193-0.84-0.787-1.82-1.267-2.867-1.267v0zM16.060 2.567c0.7 0 1.387 0.307 2.067 0.947 0.68 0.633 1.327 1.6 1.88 2.82 0.093 0.2 0.173 0.4 0.253 0.6-1.333 0.3-2.753 0.753-4.2 1.367-1.453-0.607-2.867-1.067-4.207-1.367 0.080-0.207 0.167-0.407 0.253-0.6 0.553-1.22 1.2-2.187 1.88-2.827 0.687-0.633 1.373-0.94 2.073-0.94v0zM8.333 7.693c0.113 0 0.227 0 0.347 0 0.307 0.007 0.627 0.027 0.96 0.060 0.213 0.020 0.433 0.053 0.653 0.080-0.413 1.313-0.727 2.767-0.92 4.327-1.253 0.947-2.36 1.947-3.287 2.96-0.133-0.173-0.267-0.347-0.393-0.527-0.78-1.087-1.293-2.127-1.507-3.040-0.213-0.907-0.133-1.653 0.22-2.26 0.347-0.607 0.96-1.047 1.847-1.32 0.587-0.18 1.293-0.273 2.080-0.28v0zM23.78 7.693c0.793 0.007 1.493 0.1 2.080 0.28 0.893 0.273 1.5 0.713 1.853 1.32 0.347 0.607 0.427 1.353 0.213 2.26-0.213 0.913-0.727 1.953-1.507 3.040-0.127 0.18-0.26 0.353-0.393 0.527-0.927-1.013-2.033-2.007-3.28-2.96-0.2-1.56-0.513-3.013-0.927-4.327 0.22-0.027 0.44-0.060 0.653-0.080 0.32-0.033 0.64-0.053 0.967-0.060 0.113 0 0.227 0 0.34 0v0zM20.66 8.047c0.313 0.967 0.567 2.027 0.76 3.167-0.62-0.42-1.253-0.813-1.9-1.187s-1.313-0.727-1.98-1.053c1.080-0.407 2.133-0.713 3.12-0.927v0zM11.453 8.047c0.993 0.213 2.040 0.52 3.127 0.927-0.673 0.327-1.333 0.68-1.987 1.053-0.647 0.373-1.28 0.767-1.9 1.187 0.193-1.14 0.453-2.2 0.76-3.167zM16.060 9.573c0.947 0.42 1.913 0.907 2.873 1.46 0.96 0.56 1.867 1.153 2.707 1.767 0.113 1.033 0.173 2.107 0.173 3.22s-0.060 2.187-0.173 3.22c-0.84 0.613-1.74 1.207-2.707 1.76-0.96 0.56-1.927 1.047-2.873 1.467-0.953-0.42-1.92-0.907-2.88-1.467-0.96-0.553-1.867-1.147-2.707-1.76-0.107-1.027-0.167-2.107-0.167-3.22s0.060-2.187 0.167-3.22c0.84-0.613 1.747-1.207 2.707-1.767 0.96-0.553 1.927-1.040 2.88-1.46v0zM16.133 11.333l-3.34 2.060 3.34 2.067 3.347-2.067-3.347-2.060zM9.213 13.78c-0.053 0.747-0.080 1.493-0.080 2.24 0 0.76 0.027 1.513 0.080 2.24-0.887-0.733-1.687-1.487-2.367-2.24 0.68-0.753 1.473-1.507 2.367-2.24zM22.9 13.78c0.893 0.733 1.687 1.487 2.367 2.24-0.68 0.753-1.473 1.507-2.367 2.24 0.053-0.747 0.080-1.493 0.080-2.24 0-0.76-0.027-1.513-0.080-2.24v0zM12.040 14.3v4.080l3.513 2.167v-4.073l-3.513-2.173zM20.233 14.307l-3.513 2.167v4.073l3.513-2.167v-4.073zM6.087 16.92c0.927 1.013 2.033 2.007 3.287 2.96 0.193 1.56 0.507 3.013 0.92 4.327-0.22 0.027-0.44 0.053-0.653 0.080-1.327 0.133-2.487 0.047-3.38-0.22-0.893-0.273-1.507-0.713-1.853-1.32-0.353-0.607-0.427-1.353-0.22-2.26 0.213-0.913 0.727-1.96 1.507-3.047 0.127-0.173 0.26-0.347 0.393-0.52zM26.027 16.92c0.14 0.173 0.273 0.347 0.393 0.52 0.78 1.087 1.293 2.133 1.507 3.047 0.213 0.907 0.133 1.653-0.213 2.26-0.353 0.607-0.96 1.047-1.853 1.32-0.893 0.267-2.053 0.347-3.387 0.22-0.22-0.027-0.433-0.053-0.653-0.080 0.413-1.313 0.727-2.767 0.927-4.327 1.247-0.953 2.353-1.947 3.28-2.96v0zM21.42 20.827c-0.193 1.14-0.447 2.2-0.76 3.167-0.987-0.213-2.040-0.52-3.12-0.927 0.673-0.327 1.333-0.68 1.98-1.053s1.28-0.767 1.9-1.187v0zM10.693 20.827c0.62 0.42 1.253 0.813 1.9 1.187 0.653 0.373 1.313 0.727 1.987 1.053-1.087 0.407-2.133 0.713-3.127 0.927-0.313-0.967-0.567-2.027-0.76-3.167zM16.093 20.88l0.040 0.027 0.047-0.027h-0.087zM16.060 23.74c1.447 0.607 2.867 1.067 4.2 1.367-0.080 0.2-0.16 0.4-0.253 0.6-0.553 1.22-1.2 2.187-1.88 2.827-0.68 0.633-1.367 0.94-2.067 0.94s-1.387-0.307-2.073-0.94c-0.68-0.64-1.327-1.607-1.88-2.827-0.087-0.2-0.173-0.4-0.253-0.6 1.34-0.3 2.753-0.76 4.207-1.367v0z"></path>
</symbol>
</defs>
</svg>
